<svg id="图层_1" data-name="图层 1" xmlns="http://www.w3.org/2000/svg" viewBox="0 0 667.47671 667.46723"><defs><style>.cls-1{fill:#fff;}</style></defs><path d="M501.62254,206.43094h0l-25.9213.62815-26.35984,1.44756-9.75694.81311L424.86764,210.893,405.011,213.79166l-18.52082,3.66768-19.18872,4.98932-19.18873,6.4599-10.02954,4.07183-9.15918,4.20123-9.87553,5.112-9.31319,5.4484-6.8204,4.42713-12.36833,9.12318-15.4349,13.81937-3.75382,3.86343L257.313,295.69044l-9.571,14.04485-5.44837,9.31319-5.112,9.87553-7.13543,16.25455-3.47957,9.34794-6.02571,19.52423-3.0816,12.43946-3.80458,19.32567-2.76183,19.05178-2.38625,24.47375-1.44757,26.35984-.62821,25.9213L206.26165,540l.16923,38.37745.62821,25.9213,1.44757,26.35985.81311,9.75693,1.57314,14.71682,2.89876,19.85653,3.66765,18.52092,4.98933,19.18873,6.45987,19.18872,4.07188,10.02944,4.20123,9.15929,5.112,9.87553,5.44837,9.31319,9.571,14.04481,3.97923,5.14391,13.81944,15.43487,3.86337,3.75386,16.71541,14.04481,14.04485,9.571,9.31319,5.44839,9.87553,5.11193,16.25455,7.13548,9.34794,3.47955,19.52423,6.02573,12.43945,3.08152,19.32568,3.80463,19.05177,2.76178,24.47376,2.38633,26.35984,1.44755,25.9213.62817,50.0409.16457,38.75672-.37932,26.33473-.97482,23.66063-1.69927,14.71682-1.57321,19.8566-2.8987,18.52085-3.66771,19.18872-4.98927,19.18873-6.45993,10.02951-4.07181,9.15921-4.20127,9.87553-5.11193,9.3132-5.44839,6.82039-4.42714,12.36833-9.12317,15.43487-13.81941,3.75386-3.8634L822.687,784.30949l9.57111-14.04481,5.44833-9.31319,5.11193-9.87553,7.13548-16.25452,3.47955-9.348,6.02573-19.5242,3.08159-12.43949,3.80456-19.32564,2.76185-19.05181,2.38626-24.47375,1.44755-26.35985.62823-25.9213L873.73835,540l-.16923-38.37745-.62823-25.9213-1.44755-26.35984-.81312-9.75694-1.57314-14.71681-2.89877-19.85654-3.66764-18.52091-4.98934-19.18873-6.45987-19.18872-4.07187-10.02944-4.20127-9.15929-5.11193-9.87553-5.44833-9.31319L822.687,295.69044l-3.97919-5.14388-13.81948-15.4349-3.86333-3.75382L784.3095,257.313l-14.04481-9.571-9.3132-5.4484-9.87553-5.112-16.25451-7.13542-9.348-3.47958-19.52419-6.02571-12.43949-3.08157-19.32564-3.80461L655.13234,210.893l-24.47375-2.3863-26.35985-1.44756-25.9213-.62815-50.04089-.16456-26.714.16456" transform="translate(-206.26165 -206.26638)"/><path class="cls-1" d="M408.30277,637.80527q-26.38995,0-45.75544-11.49939a71.5223,71.5223,0,0,1-28.809-31.35094l31.71409-21.30412q7.26276,14.28723,18.15692,20.941a46.82639,46.82639,0,0,0,24.9355,6.65754,53.62268,53.62268,0,0,0,16.94645-2.42092,26.087,26.087,0,0,0,11.25729-6.77859,14.27867,14.27867,0,0,0,3.99453-9.92578,15.84741,15.84741,0,0,0-3.26825-10.16787q-3.26824-4.11369-11.25729-7.62591a176.98719,176.98719,0,0,0-22.99876-7.62591l-1.45256-.48418a275.66924,275.66924,0,0,1-31.2299-10.65206A56.61013,56.61013,0,0,1,348.627,528.86376q-9.32244-11.37645-9.32055-29.53526a49.20692,49.20692,0,0,1,9.44159-29.53525q9.4416-13.073,25.78283-20.33575a88.13112,88.13112,0,0,1,36.19279-7.26277q25.41968,0,43.21346,11.25729a71.18322,71.18322,0,0,1,26.5091,28.93l-30.26153,20.57784a47.43949,47.43949,0,0,0-17.0675-17.91483,43.80473,43.80473,0,0,0-22.87772-6.2944,39.7914,39.7914,0,0,0-14.88867,2.663,28.55132,28.55132,0,0,0-10.65206,7.02067,15.14219,15.14219,0,0,0-.36314,20.09366q3.63139,3.87537,11.37834,7.14172a173.74976,173.74976,0,0,0,22.75667,7.14172,226.64449,226.64449,0,0,1,31.71408,10.28892,59.3688,59.3688,0,0,1,22.39354,16.82541q9.56074,11.38212,9.56264,30.01944,0,17.43065-9.32055,30.50362-9.32244,13.073-26.02492,20.21471Q430.09107,637.80148,408.30277,637.80527Z" transform="translate(-206.26165 -206.26638)"/><path class="cls-1" d="M547.989,634.65807h-40.4294V445.82612H547.989Z" transform="translate(-206.26165 -206.26638)"/><path class="cls-1" d="M580.42846,634.65807V445.82612h73.354q29.77734,0,50.59728,11.74147a75.49561,75.49561,0,0,1,31.35094,33.16664q10.531,21.42516,10.531,49.50786,0,28.08648-11.0152,49.50787a77.00937,77.00937,0,0,1-32.8035,33.16663q-21.78829,11.74525-52.77611,11.74148Zm69.48047-37.76639q18.39523,0,30.62467-7.02068a44.27242,44.27242,0,0,0,18.278-19.60947q6.04853-12.585,6.0523-30.01944,0-17.66895-5.81021-30.26153A42.91355,42.91355,0,0,0,681.502,490.49214q-11.74526-6.89964-29.6563-6.89963H620.85786V596.89168Z" transform="translate(-206.26165 -206.26638)"/></svg>